<svg xmlns="http://www.w3.org/2000/svg" xml:space="preserve" viewBox="17.53 28.32 53.2 44.62"><switch><g fill-rule="evenodd" clip-rule="evenodd"><path fill="#0149BB" d="M42.775 55.167c.806-.994 1.209-2.237 1.209-3.729s-.551-2.753-1.652-3.783c-1.102-1.031-2.701-1.546-4.797-1.546h-6.046v18.795h2.445v-7.757h2.392l4.891 7.757h3.063l-5.133-7.865c1.613-.253 2.822-.877 3.628-1.872zm-8.841.027v-7.105h3.601c2.651 0 3.977 1.185 3.977 3.553 0 1.121-.327 1.993-.981 2.617s-1.652.936-2.996.936h-3.601zm14.135 9.71h9.862v-1.953h-7.417v-6.563h6.611v-1.926h-6.611v-6.4h7.417V46.11h-9.862v18.794zm13.57-18.795v18.795h2.445V46.109h-2.445z"/><path fill="#C13A3B" d="M52.06 41.507h18.666l-11.199-9.419h-3.733V28.32h-2.8v9.419l-4.666-2.825v-4.71l-11.2-1.884-19.599 14.129.934.941 19.598-12.244L52.06 41.507zm-26.864-.938h-1.351v31.129h-.085v1.238h45.231v-1.238H25.196V40.569z"/></g></switch></svg>