<svg xmlns="http://www.w3.org/2000/svg" xml:space="preserve" viewBox="120.56 428.78 715.69 74.59"><path d="M99.264 54.854c.973-1.199 1.459-2.699 1.459-4.498 0-1.8-.665-3.321-1.994-4.564-1.329-1.243-3.258-1.864-5.786-1.864H85.65v22.671h2.95v-9.356h2.885l5.899 9.356h3.695l-6.191-9.487c1.945-.305 3.404-1.058 4.376-2.258zm-10.665.033v-8.571h4.344c3.198 0 4.797 1.429 4.797 4.286 0 1.353-.395 2.404-1.183 3.157-.789.752-1.994 1.128-3.614 1.128h-4.344zm24.619-6.543c-2.583 0-4.684.846-6.305 2.536-1.621 1.69-2.431 3.931-2.431 6.723s.799 5.038 2.398 6.739c1.599 1.701 3.674 2.552 6.224 2.552 2.075 0 3.798-.513 5.17-1.538 1.372-1.024 2.339-2.322 2.901-3.893H118c-.389.895-1 1.614-1.832 2.159-.832.545-1.854.817-3.063.817-1.599 0-2.912-.518-3.938-1.554-1.027-1.035-1.583-2.448-1.669-4.236h14.165c.086-.545.13-1.134.13-1.767 0-2.486-.784-4.531-2.35-6.134-1.568-1.602-3.643-2.404-6.225-2.404zm-5.689 8.146c.108-1.767.681-3.157 1.718-4.171 1.037-1.015 2.339-1.521 3.906-1.521 1.566 0 2.879.519 3.938 1.554 1.059 1.036 1.599 2.416 1.621 4.139h-11.183zm31.799-4.253c-.583-1.156-1.442-2.094-2.577-2.813-1.134-.72-2.458-1.08-3.971-1.08-2.442 0-4.468.846-6.078 2.536-1.61 1.69-2.415 3.904-2.415 6.641s.811 4.984 2.431 6.739c1.621 1.756 3.641 2.634 6.062 2.634 1.513 0 2.836-.365 3.971-1.096a7.105 7.105 0 0 0 2.577-2.863v3.664h2.982v-17.96h-2.982v3.598zm-1.766 10.273c-1.178 1.222-2.588 1.832-4.23 1.832-1.643 0-3.058-.633-4.247-1.897s-1.783-2.912-1.783-4.94c0-2.028.588-3.631 1.767-4.809 1.178-1.178 2.593-1.767 4.247-1.767 1.653 0 3.068.61 4.246 1.832 1.178 1.222 1.767 2.846 1.767 4.874 0 2.028-.59 3.653-1.767 4.875zm9.61 4.089h2.95V42.39h-2.95v24.209zm7.812 0h11.896v-2.355h-8.947v-7.917h7.974v-2.322h-7.974v-7.721h8.947v-2.355h-11.896v22.67zm25.462-9.372a54.14 54.14 0 0 0-3.08-.72c-1.027-.207-1.902-.54-2.625-.998-.725-.458-1.086-1.106-1.086-1.946 0-.84.318-1.526.956-2.062.637-.534 1.512-.802 2.625-.802s1.982.306 2.609.916c.627.611.961 1.418 1.005 2.421h3.047c-.108-1.767-.725-3.156-1.848-4.171-1.124-1.014-2.674-1.521-4.652-1.521-1.977 0-3.587.519-4.83 1.555-1.243 1.036-1.864 2.306-1.864 3.811 0 1.025.259 1.876.778 2.552a4.133 4.133 0 0 0 1.945 1.424c.778.273 1.626.528 2.544.769.918.241 1.767.447 2.545.621.778.175 1.426.491 1.945.949.519.458.778 1.074.778 1.849 0 .775-.33 1.412-.989 1.913-.659.502-1.567.753-2.723.753s-2.064-.3-2.723-.899c-.659-.599-1.01-1.401-1.053-2.405h-3.047c.108 1.767.762 3.152 1.961 4.155 1.199 1.003 2.793 1.505 4.781 1.505 1.988 0 3.603-.475 4.846-1.423 1.242-.949 1.864-2.115 1.864-3.501 0-1.385-.362-2.453-1.086-3.206a5.515 5.515 0 0 0-2.623-1.539zm12.074 6.461c-.324-.327-.486-.895-.486-1.701V51.06h4.603v-2.421h-4.603V44.19h-2.982v4.449h-2.301v2.421h2.301v10.927c0 3.075 1.545 4.612 4.635 4.612h2.982v-2.421h-2.431c-.821 0-1.394-.163-1.718-.49zm21.264-11.451c-.583-1.156-1.442-2.094-2.577-2.813-1.135-.719-2.458-1.08-3.971-1.08-2.442 0-4.469.846-6.078 2.536-1.61 1.69-2.415 3.904-2.415 6.641s.811 4.984 2.431 6.739c1.62 1.756 3.642 2.634 6.062 2.634 1.513 0 2.836-.365 3.971-1.096a7.112 7.112 0 0 0 2.577-2.863v3.664h2.982v-17.96h-2.982v3.598zm-1.766 10.273c-1.178 1.222-2.588 1.832-4.23 1.832-1.642 0-3.058-.633-4.246-1.897-1.188-1.264-1.783-2.912-1.783-4.94 0-2.028.589-3.631 1.768-4.809 1.178-1.178 2.593-1.767 4.246-1.767 1.652 0 3.068.61 4.246 1.832 1.178 1.222 1.767 2.846 1.767 4.874 0 2.028-.591 3.653-1.768 4.875zm13.727 1.178c-.323-.327-.485-.895-.485-1.701V51.06h4.602v-2.421h-4.602V44.19h-2.982v4.449h-2.302v2.421h2.302v10.927c0 3.075 1.545 4.612 4.635 4.612h2.982v-2.421h-2.432c-.821 0-1.394-.163-1.718-.49zm23.533-6.805c0-2.486-.783-4.531-2.351-6.134-1.566-1.604-3.641-2.405-6.223-2.405-2.583 0-4.685.846-6.305 2.536-1.621 1.69-2.432 3.931-2.432 6.723s.799 5.038 2.398 6.739c1.599 1.701 3.674 2.552 6.225 2.552 2.074 0 3.797-.513 5.17-1.538 1.371-1.024 2.339-2.322 2.9-3.893h-3.176c-.39.895-1 1.614-1.832 2.159-.832.545-1.854.817-3.063.817-1.6 0-2.912-.518-3.939-1.554-1.026-1.035-1.583-2.448-1.669-4.236h14.165c.088-.545.132-1.133.132-1.766zm-14.262-.393c.107-1.767.682-3.157 1.719-4.171 1.037-1.015 2.338-1.521 3.905-1.521 1.567 0 2.88.519 3.938 1.554 1.059 1.036 1.6 2.416 1.621 4.139h-11.183z" style="stroke:none;stroke-width:1;stroke-dasharray:none;stroke-linecap:butt;stroke-dashoffset:0;stroke-linejoin:miter;stroke-miterlimit:4;fill:#0149bb;fill-rule:evenodd;opacity:1" transform="matrix(2.96 0 0 2.96 -132.962 305.356)" vector-effect="non-scaling-stroke"/><path d="M252.941 66.599h2.949V43.928h-2.949v22.671zm16.564-18.255c-2.657 0-4.593 1.069-5.802 3.206v-2.911h-2.95v17.96h2.95V56.457c0-1.81.438-3.184 1.313-4.122.875-.938 2.074-1.406 3.598-1.406s2.718.469 3.582 1.406c.864.938 1.297 2.313 1.297 4.122v10.142h2.918V55.967c0-2.442-.66-4.323-1.979-5.644-1.319-1.319-2.961-1.979-4.927-1.979zm25.477 3.893c-.583-1.156-1.441-2.094-2.576-2.813-1.135-.719-2.459-1.08-3.971-1.08-2.443 0-4.469.846-6.078 2.536-1.61 1.69-2.415 3.904-2.415 6.641s.811 4.984 2.431 6.739c1.621 1.756 3.642 2.634 6.063 2.634 1.512 0 2.836-.365 3.971-1.096a7.11 7.11 0 0 0 2.576-2.863v3.664h2.982V42.39h-2.982v9.847zm-1.765 10.273c-1.179 1.222-2.588 1.832-4.23 1.832-1.642 0-3.059-.633-4.246-1.897-1.189-1.265-1.783-2.912-1.783-4.94 0-2.028.588-3.631 1.767-4.809 1.178-1.178 2.593-1.767 4.246-1.767 1.653 0 3.068.61 4.247 1.832 1.178 1.222 1.766 2.846 1.766 4.874 0 2.028-.589 3.653-1.767 4.875zm9.61 4.089h2.95v-17.96h-2.95v17.96zm1.508-24.896a1.91 1.91 0 0 0-1.41.589c-.39.393-.584.872-.584 1.439 0 .567.189 1.047.567 1.439a1.88 1.88 0 0 0 1.41.589c.562 0 1.037-.196 1.427-.589.389-.393.583-.872.583-1.439 0-.567-.194-1.047-.583-1.439a1.912 1.912 0 0 0-1.41-.589zm20.178 6.936v3.599c-.583-1.156-1.442-2.094-2.577-2.813-1.134-.72-2.458-1.08-3.971-1.08-2.442 0-4.468.846-6.078 2.536-1.609 1.69-2.414 3.904-2.414 6.641s.81 4.984 2.431 6.739c1.621 1.756 3.642 2.634 6.062 2.634 1.513 0 2.837-.365 3.971-1.096a7.105 7.105 0 0 0 2.577-2.863V66.6h2.982V48.64h-2.983zm-1.767 13.871c-1.178 1.222-2.588 1.832-4.23 1.832-1.642 0-3.058-.633-4.246-1.897-1.188-1.264-1.782-2.912-1.782-4.94 0-2.028.588-3.631 1.767-4.809 1.177-1.178 2.593-1.767 4.246-1.767 1.653 0 3.068.61 4.246 1.832 1.178 1.222 1.767 2.846 1.767 4.874 0 2.028-.59 3.653-1.768 4.875z" style="stroke:none;stroke-width:1;stroke-dasharray:none;stroke-linecap:butt;stroke-dashoffset:0;stroke-linejoin:miter;stroke-miterlimit:4;fill:#c00;fill-rule:evenodd;opacity:1" transform="matrix(2.96 0 0 2.96 -133.141 305.342)" vector-effect="non-scaling-stroke"/></svg>